<svg xmlns="http://www.w3.org/2000/svg" viewBox="0 0 423.45 1024.22"><defs><style>.cls-1,.cls-2,.cls-3{fill:#fff;}.cls-2{opacity:0.5;}.cls-2,.cls-3{isolation:isolate;}.cls-3{opacity:0.2;}</style></defs><title>Asset 1white_highlight</title><g id="Layer_2" data-name="Layer 2"><g id="Layer_1-2" data-name="Layer 1"><g id="Layer_2-2" data-name="Layer 2"><g id="bubbletea"><line class="cls-1" x1="193.23" x2="193.23" y2="618.33"/><line class="cls-1" x1="229.67" x2="229.67" y2="618.33"/><line class="cls-1" x1="212" x2="212" y2="618.33"/><line class="cls-1" x1="202.06" x2="202.06" y2="618.33"/><line class="cls-1" x1="220.83" x2="220.83" y2="618.33"/><circle class="cls-2" cx="211.64" cy="384.99" r="195.8"/><polygon class="cls-1" points="373.2 1024.22 51.16 1024.22 12.13 387.55 409.61 387.55 373.2 1024.22"/><rect class="cls-1" x="12.7" y="353.7" width="398.24" height="13.44"/><rect class="cls-1" y="365.84" width="423.45" height="22.27"/><circle class="cls-1" cx="82.81" cy="968.91" r="27.05"/><circle class="cls-1" cx="134.16" cy="993.75" r="27.05"/><circle class="cls-1" cx="189.92" cy="993.75" r="27.05"/><circle class="cls-1" cx="245.12" cy="993.75" r="27.05"/><circle class="cls-1" cx="300.33" cy="993.75" r="27.05"/><circle class="cls-1" cx="346.71" cy="961.73" r="27.05"/><circle class="cls-1" cx="294.81" cy="938.54" r="27.05"/><circle class="cls-1" cx="238.5" cy="937.44" r="27.05"/><circle class="cls-1" cx="183.29" cy="938.54" r="27.05"/><circle class="cls-1" cx="126.98" cy="935.23" r="27.05"/><circle class="cls-1" cx="75.08" cy="913.14" r="27.05"/><circle class="cls-1" cx="119.25" cy="878.92" r="27.05"/><circle class="cls-1" cx="208.69" cy="887.75" r="27.05"/><circle class="cls-1" cx="166.73" cy="848" r="27.05"/><circle class="cls-1" cx="267.21" cy="888.85" r="27.05"/><circle class="cls-1" cx="348.92" cy="905.42" r="27.05"/><circle class="cls-1" cx="315.79" cy="860.14" r="27.05"/><circle class="cls-1" cx="354.44" cy="820.4" r="27.05"/><circle class="cls-1" cx="299.23" cy="807.15" r="27.05"/><circle class="cls-1" cx="248.44" cy="832.54" r="27.05"/><circle class="cls-1" cx="200.96" cy="799.42" r="27.05"/><circle class="cls-3" cx="91.37" cy="500.28" r="11.32"/><circle class="cls-3" cx="179.98" cy="515.65" r="11.32"/><circle class="cls-3" cx="156.43" cy="436.15" r="18.22"/><circle class="cls-3" cx="235.93" cy="426.57" r="18.22"/><circle class="cls-3" cx="51.62" cy="441.39" r="11.32"/><circle class="cls-3" cx="334.56" cy="553.55" r="13.53"/><circle class="cls-3" cx="129.1" cy="558.24" r="11.32"/><circle class="cls-3" cx="263.07" cy="702.16" r="11.32"/><circle class="cls-3" cx="61.28" cy="542.7" r="18.22"/><circle class="cls-3" cx="135.81" cy="681.27" r="18.22"/><circle class="cls-3" cx="88.97" cy="642.9" r="11.32"/><circle class="cls-3" cx="229.94" cy="619.71" r="13.53"/><circle class="cls-3" cx="149.15" cy="593.03" r="11.32"/><circle class="cls-3" cx="182.65" cy="746.14" r="11.32"/><circle class="cls-3" cx="58.52" cy="692.31" r="11.32"/><circle class="cls-3" cx="137.19" cy="813.68" r="11.32"/><circle class="cls-3" cx="328.49" cy="735.93" r="18.22"/><circle class="cls-3" cx="328.49" cy="657.53" r="18.22"/><circle class="cls-3" cx="106.64" cy="783.13" r="11.32"/><circle class="cls-3" cx="102.69" cy="733.17" r="11.32"/><circle class="cls-3" cx="258.65" cy="783.13" r="13.53"/><circle class="cls-3" cx="194.33" cy="653.67" r="11.32"/><circle class="cls-3" cx="352.23" cy="449.4" r="18.22"/><circle class="cls-3" cx="282.39" cy="496.6" r="13.53"/><circle class="cls-1" cx="71.77" cy="849.1" r="27.05"/></g></g></g></g></svg>