<svg xmlns="http://www.w3.org/2000/svg" viewBox="0 0 1345.554 2641.934">
  <defs>
    <style>
      .cls-1 {
        fill: #ffde67;
      }
    </style>
  </defs>
  <g id="history-path" transform="translate(-250.405 -3078.635)">
    <rect id="Rectangle_25" data-name="Rectangle 25" class="cls-1" width="34" height="92" transform="matrix(0.891, -0.454, 0.454, 0.891, 466.567, 3094.07)"/>
    <rect id="Rectangle_26" data-name="Rectangle 26" class="cls-1" width="34" height="92" transform="matrix(0.819, -0.574, 0.574, 0.819, 534.287, 3238.409)"/>
    <rect id="Rectangle_27" data-name="Rectangle 27" class="cls-1" width="34" height="92" transform="translate(635.15 3357.602) rotate(-51)"/>
    <rect id="Rectangle_28" data-name="Rectangle 28" class="cls-1" width="34" height="92" transform="translate(766.56 3447.725) rotate(-69)"/>
    <rect id="Rectangle_29" data-name="Rectangle 29" class="cls-1" width="34" height="92" transform="translate(904.072 3492.437) rotate(-84)"/>
    <rect id="Rectangle_30" data-name="Rectangle 30" class="cls-1" width="34" height="92" transform="translate(1055.901 3502.139) rotate(-91)"/>
    <rect id="Rectangle_31" data-name="Rectangle 31" class="cls-1" width="34" height="92" transform="translate(1205.55 3497.723) rotate(-93)"/>
    <rect id="Rectangle_32" data-name="Rectangle 32" class="cls-1" width="34" height="92" transform="translate(1353.765 3499.854) rotate(-75)"/>
    <path id="Path_29" data-name="Path 29" class="cls-1" d="M-1.1,91.666l34.47-.408L34.47-.408,0,0Z" transform="matrix(-0.921, -0.391, 0.391, -0.921, 1526.313, 3841.974)"/>
    <path id="Path_30" data-name="Path 30" class="cls-1" d="M-1.283,92l34.346-.474,1.283-92L0,0Z" transform="translate(1455.731 3983.628) rotate(-149)"/>
    <path id="Path_31" data-name="Path 31" class="cls-1" d="M-1.336,92.753l34.068-.494L34.068-.494,0,0Z" transform="matrix(-0.682, -0.731, 0.731, -0.682, 1341.079, 4092.628)"/>
    <path id="Path_32" data-name="Path 32" class="cls-1" d="M-.914,93.483l33.8-.338L33.8-.338,0,0Z" transform="translate(1197.236 4167.404) rotate(-115)"/>
    <path id="Path_37" data-name="Path 37" class="cls-1" d="M-.284,93.8l33.68-.1L33.68-.1,0,0Z" transform="translate(1053.095 4198.686) rotate(-100)"/>
    <path id="Path_39" data-name="Path 39" class="cls-1" d="M.288,93.942l33.669.018L33.91.126.241.109Z" transform="translate(897.917 4208.267) rotate(-93)"/>
    <path id="Path_38" data-name="Path 38" class="cls-1" d="M.866,94.158l33.671.053L34.395.384.724.331Z" transform="translate(745.022 4211.856) rotate(-91)"/>
    <path id="Path_36" data-name="Path 36" class="cls-1" d="M-.683,93.651,33.053,93.4,33.736-.252,0,0Z" transform="translate(598.185 4238.344) rotate(-104)"/>
    <path id="Path_40" data-name="Path 40" class="cls-1" d="M-1.1,91.666l34.47-.408L34.47-.408,0,0Z" transform="translate(1574.463 3572.004) rotate(130)"/>
    <path id="Path_41" data-name="Path 41" class="cls-1" d="M-1.1,91.666l34.47-.408L34.47-.408,0,0Z" transform="matrix(-0.999, -0.052, 0.052, -0.999, 1590.058, 3724.895)"/>
    <rect id="Rectangle_25-2" data-name="Rectangle 25" class="cls-1" width="34" height="92" transform="matrix(0.891, -0.454, 0.454, 0.891, 276.567, 4562.07)"/>
    <rect id="Rectangle_26-2" data-name="Rectangle 26" class="cls-1" width="34" height="92" transform="matrix(0.819, -0.574, 0.574, 0.819, 344.287, 4706.409)"/>
    <rect id="Rectangle_27-2" data-name="Rectangle 27" class="cls-1" width="34" height="92" transform="translate(445.15 4825.602) rotate(-51)"/>
    <rect id="Rectangle_28-2" data-name="Rectangle 28" class="cls-1" width="34" height="92" transform="translate(576.56 4915.725) rotate(-69)"/>
    <rect id="Rectangle_29-2" data-name="Rectangle 29" class="cls-1" width="34" height="92" transform="translate(714.072 4960.438) rotate(-84)"/>
    <rect id="Rectangle_30-2" data-name="Rectangle 30" class="cls-1" width="34" height="92" transform="translate(865.901 4970.139) rotate(-91)"/>
    <rect id="Rectangle_31-2" data-name="Rectangle 31" class="cls-1" width="34" height="92" transform="translate(1015.55 4965.723) rotate(-93)"/>
    <rect id="Rectangle_32-2" data-name="Rectangle 32" class="cls-1" width="34" height="92" transform="translate(1163.765 4967.854) rotate(-75)"/>
    <path id="Path_29-2" data-name="Path 29" class="cls-1" d="M-1.1,91.666l34.47-.408L34.47-.408,0,0Z" transform="matrix(-0.921, -0.391, 0.391, -0.921, 1336.313, 5309.974)"/>
    <path id="Path_30-2" data-name="Path 30" class="cls-1" d="M-1.283,92l34.346-.474,1.283-92L0,0Z" transform="translate(1265.731 5451.628) rotate(-149)"/>
    <path id="Path_31-2" data-name="Path 31" class="cls-1" d="M-1.336,92.753l34.068-.494L34.068-.494,0,0Z" transform="matrix(-0.682, -0.731, 0.731, -0.682, 1151.079, 5560.628)"/>
    <path id="Path_32-2" data-name="Path 32" class="cls-1" d="M-.914,93.483l33.8-.338L33.8-.338,0,0Z" transform="translate(1007.236 5635.404) rotate(-115)"/>
    <path id="Path_37-2" data-name="Path 37" class="cls-1" d="M-.284,93.8l33.68-.1L33.68-.1,0,0Z" transform="translate(863.095 5666.686) rotate(-100)"/>
    <path id="Path_39-2" data-name="Path 39" class="cls-1" d="M.288,93.942l33.669.018L33.91.126.241.109Z" transform="translate(707.917 5676.267) rotate(-93)"/>
    <path id="Path_38-2" data-name="Path 38" class="cls-1" d="M.866,94.158l33.671.053L34.395.384.724.331Z" transform="translate(555.022 5679.856) rotate(-91)"/>
    <path id="Path_36-2" data-name="Path 36" class="cls-1" d="M-.683,93.651,33.053,93.4,33.736-.252,0,0Z" transform="translate(409.724 5719.841) rotate(-109)"/>
    <path id="Path_40-2" data-name="Path 40" class="cls-1" d="M-1.1,91.666l34.47-.408L34.47-.408,0,0Z" transform="translate(1384.463 5040.004) rotate(130)"/>
    <path id="Path_41-2" data-name="Path 41" class="cls-1" d="M-1.1,91.666l34.47-.408L34.47-.408,0,0Z" transform="matrix(-0.999, -0.052, 0.052, -0.999, 1400.058, 5192.895)"/>
    <rect id="Rectangle_33" data-name="Rectangle 33" class="cls-1" width="34" height="92" transform="matrix(0.978, 0.208, -0.208, 0.978, 269.533, 4394.81)"/>
    <rect id="Rectangle_34" data-name="Rectangle 34" class="cls-1" width="34" height="92" transform="matrix(0.438, 0.899, -0.899, 0.438, 395.49, 4273.895)"/>
    <rect id="Rectangle_35" data-name="Rectangle 35" class="cls-1" width="34" height="92" transform="translate(546.594 4220.427) rotate(77)"/>
  </g>
</svg>
