<svg xmlns="http://www.w3.org/2000/svg" viewBox="0 0 383.5 929.6"><defs><style>.cls-1,.cls-2{fill:none;stroke-width:9px;}.cls-1{stroke:#f1f2f2;}.cls-1,.cls-2,.cls-4{stroke-miterlimit:10;}.cls-2{stroke:#27aae1;}.cls-3,.cls-6,.cls-8{fill:#fff;}.cls-3{opacity:0.5;}.cls-4{fill:#c49a6c;stroke:#fff;stroke-width:4px;}.cls-5{fill:#e6e7e8;}.cls-7{fill:#8b5e3c;}.cls-8{opacity:0.2;}</style></defs><title>Asset 2mocha_boba</title><g id="Layer_2" data-name="Layer 2"><g id="bubbletea"><line class="cls-1" x1="175" x2="175" y2="560"/><line class="cls-1" x1="208" x2="208" y2="560"/><line class="cls-1" x1="192" x2="192" y2="560"/><line class="cls-2" x1="183" x2="183" y2="560"/><line class="cls-2" x1="200" x2="200" y2="560"/><circle class="cls-3" cx="191.67" cy="348.67" r="177.33"/><polygon class="cls-4" points="337.99 927.6 46.33 927.6 10.99 350.99 370.97 350.99 337.99 927.6"/><rect class="cls-5" x="11.5" y="320.33" width="360.67" height="12.17"/><rect class="cls-6" y="331.33" width="383.5" height="20.17"/><circle class="cls-7" cx="75" cy="877.5" r="24.5"/><circle class="cls-7" cx="121.5" cy="900" r="24.5"/><circle class="cls-7" cx="172" cy="900" r="24.5"/><circle class="cls-7" cx="222" cy="900" r="24.5"/><circle class="cls-7" cx="272" cy="900" r="24.5"/><circle class="cls-7" cx="314" cy="871" r="24.5"/><circle class="cls-7" cx="267" cy="850" r="24.5"/><circle class="cls-7" cx="216" cy="849" r="24.5"/><circle class="cls-7" cx="166" cy="850" r="24.5"/><circle class="cls-7" cx="115" cy="847" r="24.5"/><circle class="cls-7" cx="68" cy="827" r="24.5"/><circle class="cls-7" cx="108" cy="796" r="24.5"/><circle class="cls-7" cx="189" cy="804" r="24.5"/><circle class="cls-7" cx="151" cy="768" r="24.5"/><circle class="cls-7" cx="242" cy="805" r="24.5"/><circle class="cls-7" cx="316" cy="820" r="24.5"/><circle class="cls-7" cx="286" cy="779" r="24.5"/><circle class="cls-7" cx="321" cy="743" r="24.5"/><circle class="cls-7" cx="271" cy="731" r="24.5"/><circle class="cls-7" cx="225" cy="754" r="24.5"/><circle class="cls-7" cx="182" cy="724" r="24.5"/><circle class="cls-8" cx="82.75" cy="453.08" r="10.25"/><circle class="cls-8" cx="163" cy="467" r="10.25"/><circle class="cls-8" cx="141.67" cy="395" r="16.5"/><circle class="cls-8" cx="213.67" cy="386.33" r="16.5"/><circle class="cls-8" cx="46.75" cy="399.75" r="10.25"/><circle class="cls-8" cx="303" cy="501.33" r="12.25"/><circle class="cls-8" cx="116.92" cy="505.58" r="10.25"/><circle class="cls-8" cx="238.25" cy="635.92" r="10.25"/><circle class="cls-8" cx="55.5" cy="491.5" r="16.5"/><circle class="cls-8" cx="123" cy="617" r="16.5"/><circle class="cls-8" cx="80.58" cy="582.25" r="10.25"/><circle class="cls-8" cx="208.25" cy="561.25" r="12.25"/><circle class="cls-8" cx="135.08" cy="537.08" r="10.25"/><circle class="cls-8" cx="165.42" cy="675.75" r="10.25"/><circle class="cls-8" cx="53" cy="627" r="10.25"/><circle class="cls-8" cx="124.25" cy="736.92" r="10.25"/><circle class="cls-8" cx="297.5" cy="666.5" r="16.5"/><circle class="cls-8" cx="297.5" cy="595.5" r="16.5"/><circle class="cls-8" cx="96.58" cy="709.25" r="10.25"/><circle class="cls-8" cx="93" cy="664" r="10.25"/><circle class="cls-8" cx="234.25" cy="709.25" r="12.25"/><circle class="cls-8" cx="176" cy="592" r="10.25"/><circle class="cls-8" cx="319" cy="407" r="16.5"/><circle class="cls-8" cx="255.75" cy="449.75" r="12.25"/><circle class="cls-7" cx="65" cy="769" r="24.5"/></g></g></svg>