<svg xmlns="http://www.w3.org/2000/svg" viewBox="0 0 153.53 280.49"><defs><style>.cls-1,.cls-8{fill:#fff;}.cls-1,.cls-12{opacity:0.4;}.cls-2{fill:#ff6174;}.cls-3{fill:#e94e61;}.cls-4{fill:#fdf8e2;}.cls-5{fill:#f9e9a7;}.cls-6{fill:#404041;}.cls-7{fill:#ffb0ba;}.cls-9{fill:#ff8997;}.cls-10{fill:#fbf1c4;}.cls-11{fill:#f1f1f2;}.cls-12{fill:#e6e7e8;}</style></defs><title>Asset 1red_boba</title><g id="Layer_2" data-name="Layer 2"><g id="Layer_1-2" data-name="Layer 1"><path class="cls-1" d="M117,280.49H36.52a11.84,11.84,0,0,1-11.76-10.41L6.51,120H147l-18.25,150.1A11.84,11.84,0,0,1,117,280.49Z"/><path class="cls-2" d="M114.1,274.87H39.43c-5.55,0-10.23-5.08-10.9-11.85L13.48,115.28H140.05L125,263C124.33,269.79,119.65,274.87,114.1,274.87Z"/><path class="cls-3" d="M76.77,274.87H114.1c5.55,0,10.23-5.08,10.9-11.84l15.05-147.74H76.77Z"/><path class="cls-4" d="M125,263l3.38-33.18H25.15L28.53,263c.67,6.76,5.35,11.84,10.9,11.84H114.1C119.65,274.87,124.33,269.79,125,263Z"/><path class="cls-5" d="M125,263l3.38-33.18H76.77v45H114.1C119.65,274.87,124.33,269.79,125,263Z"/><circle class="cls-6" cx="43.55" cy="264.79" r="6.95"/><circle class="cls-6" cx="68.09" cy="264" r="6.95"/><circle class="cls-6" cx="85.03" cy="264" r="6.95"/><circle class="cls-6" cx="109.64" cy="265.56" r="6.95"/><circle class="cls-6" cx="117.06" cy="249.34" r="6.95"/><circle class="cls-6" cx="87.37" cy="227.77" r="6.95"/><circle class="cls-6" cx="59.44" cy="230.8" r="6.95"/><circle class="cls-6" cx="41.23" cy="246.29" r="6.95"/><circle class="cls-6" cx="66.39" cy="249.32" r="6.95"/><circle class="cls-6" cx="95.17" cy="251.29" r="6.95"/><path class="cls-7" d="M73.29,0h7a5.31,5.31,0,0,1,5.31,5.31V212.25a4.39,4.39,0,0,1-4.39,4.39H72.37A4.39,4.39,0,0,1,68,212.25V5.31A5.31,5.31,0,0,1,73.29,0Z"/><circle class="cls-8" cx="66.39" cy="246.63" r="2.31"/><circle class="cls-8" cx="95.17" cy="248.6" r="2.31"/><circle class="cls-8" cx="117.06" cy="247.02" r="2.31"/><circle class="cls-8" cx="87.37" cy="225.45" r="2.31"/><circle class="cls-8" cx="59.44" cy="228.49" r="2.31"/><circle class="cls-8" cx="41.23" cy="243.97" r="2.31"/><circle class="cls-8" cx="43.55" cy="262.48" r="2.31"/><circle class="cls-8" cx="68.09" cy="261.68" r="2.31"/><circle class="cls-8" cx="85.03" cy="261.68" r="2.31"/><circle class="cls-8" cx="109.64" cy="263.24" r="2.31"/><path class="cls-8" d="M32.19,211.71h0a4,4,0,0,1-4.45-3.57l-5.51-50.06a4,4,0,0,1,3.57-4.45h0a4,4,0,0,1,4.45,3.57l5.51,50.06A4,4,0,0,1,32.19,211.71Z"/><circle class="cls-8" cx="33.93" cy="220.46" r="4.99"/><path class="cls-1" d="M76.77,40.33A70.26,70.26,0,0,0,6.51,110.6H147A70.26,70.26,0,0,0,76.77,40.33Z"/><path class="cls-9" d="M81.41,0H76.77V216.64h5.36a3.42,3.42,0,0,0,3.42-3.42V4.14A4.14,4.14,0,0,0,81.41,0Z"/><path class="cls-4" d="M118.19,95.2a11.84,11.84,0,0,0,.45-3.22h0c0-7.53-7.14-13.73-16.28-14.47a8.24,8.24,0,0,0,1.08-4h0c0-5.47-5.52-9.9-12.34-9.9H87a6.94,6.94,0,0,0-.13-7.76h0l0,0h0l-9.76-15a1.11,1.11,0,0,0-2,.42c-.44,3.64-.07,7.94-5,10.51a11.7,11.7,0,0,0-2.84,1.11h0a8.09,8.09,0,0,0-4.55,6.93,7.06,7.06,0,0,0,1.12,3.77h-4.1c-6.81,0-12.34,4.43-12.34,9.9h0a8.24,8.24,0,0,0,1.08,4C39.24,78.25,32.1,84.45,32.1,92h0a11.84,11.84,0,0,0,.44,3.18c-5.15,2.08-8.72,6.32-8.81,11.27-.13,7.09,6.92,12.92,15.75,13A17.85,17.85,0,0,0,51.89,115a17.62,17.62,0,0,0,12.23,4.8,17.81,17.81,0,0,0,12.5-4.59,17.58,17.58,0,0,0,12.32,4.89,17.85,17.85,0,0,0,12.4-4.49,17.62,17.62,0,0,0,12.23,4.8c8.83.11,16.11-5.55,16.24-12.64C129.91,101.79,125,96.75,118.19,95.2Z"/><path class="cls-8" d="M56,62.48h.12a1.69,1.69,0,0,0,.48-3.32A23.9,23.9,0,0,0,26.82,78.5,3.21,3.21,0,0,0,30,82.21h0a3.2,3.2,0,0,0,3.08-2.33A23.88,23.88,0,0,1,56,62.48Z"/><circle class="cls-8" cx="28.33" cy="87.01" r="3.23"/><polygon class="cls-8" points="138.36 131.95 140.05 115.28 13.48 115.28 15.18 131.95 138.36 131.95"/><path class="cls-10" d="M118.19,95.2a11.84,11.84,0,0,0,.45-3.22h0c0-7.53-7.14-13.73-16.28-14.47a8.24,8.24,0,0,0,1.08-4h0c0-5.47-5.52-9.9-12.34-9.9H87a6.94,6.94,0,0,0-.13-7.76h0l0,0h0l-9.76-15a1.06,1.06,0,0,0-.33-.32v74.8a17.63,17.63,0,0,0,12.16,4.74,17.85,17.85,0,0,0,12.4-4.49,17.62,17.62,0,0,0,12.23,4.8c8.83.11,16.11-5.55,16.24-12.64C129.91,101.79,125,96.75,118.19,95.2Z"/><polygon class="cls-11" points="76.77 131.95 138.36 131.95 140.05 115.28 76.77 115.28 76.77 131.95"/><path class="cls-12" d="M148.85,120H4.69A4.69,4.69,0,0,1,0,115.28H0a4.69,4.69,0,0,1,4.69-4.69H148.85a4.69,4.69,0,0,1,4.69,4.69h0A4.69,4.69,0,0,1,148.85,120Z"/></g></g></svg>